<?xml version="1.0" encoding="UTF-8" standalone="no"?>
<!-- Created with Inkscape (http://www.inkscape.org/) -->

<svg
   xmlns:dc="http://purl.org/dc/elements/1.1/"
   xmlns:cc="http://creativecommons.org/ns#"
   xmlns:rdf="http://www.w3.org/1999/02/22-rdf-syntax-ns#"
   xmlns:svg="http://www.w3.org/2000/svg"
   xmlns="http://www.w3.org/2000/svg"
   xmlns:sodipodi="http://sodipodi.sourceforge.net/DTD/sodipodi-0.dtd"
   xmlns:inkscape="http://www.inkscape.org/namespaces/inkscape"
   id="svg4171"
   version="1.1"
   inkscape:version="0.91 r13725"
   xml:space="preserve"
   width="552.36334"
   height="555"
   viewBox="0 0 552.36334 555"
   sodipodi:docname="moose.svg"><metadata
     id="metadata4177"><rdf:RDF><cc:Work
         rdf:about=""><dc:format>image/svg+xml</dc:format><dc:type
           rdf:resource="http://purl.org/dc/dcmitype/StillImage" /><dc:title></dc:title></cc:Work></rdf:RDF></metadata><defs
     id="defs4175" /><sodipodi:namedview
     pagecolor="#000000"
     bordercolor="#666666"
     borderopacity="1"
     objecttolerance="10"
     gridtolerance="10"
     guidetolerance="10"
     inkscape:pageopacity="0"
     inkscape:pageshadow="2"
     inkscape:window-width="1770"
     inkscape:window-height="1109"
     id="namedview4173"
     showgrid="false"
     inkscape:zoom="0.41210183"
     inkscape:cx="32.554314"
     inkscape:cy="43.562518"
     inkscape:window-x="2819"
     inkscape:window-y="263"
     inkscape:window-maximized="0"
     inkscape:current-layer="g4181"
     fit-margin-top="0"
     fit-margin-left="0"
     fit-margin-right="0"
     fit-margin-bottom="0" /><g
     id="g4179"
     inkscape:groupmode="layer"
     inkscape:label="ink_ext_XXXXXX"
     transform="matrix(1.25,0,0,-1.25,-373.81788,866.795)"><g
       id="g4181"
       transform="scale(0.1,0.1)"><path
         d="m 0,0 10000,0 0,10000 L 0,10000 0,0 Z"
         style="fill:none;fill-opacity:1;fill-rule:nonzero;stroke:none"
         id="path4183"
         inkscape:connector-curvature="0" /><path
         d="m 5028.67,5880.01 c 37.55,-15.36 46.28,-87.01 62.29,-120.48 42.13,-4.25 79.69,12.47 120.13,15.35 -31.45,130.94 160.01,91.08 250.45,120.59 -64.91,83.04 -97.94,222 -73.76,394.32 -168.74,-84.28 -126.93,357.02 24.29,477.6 -130.87,-52.45 -228.53,-213.84 -278.27,-358.66 -18.47,-53.75 -41.37,-237.17 -92.76,-234.99 -76.13,3.23 -70.67,193.35 -43.29,269 -44.81,-33.24 -74.34,-127.46 -80.39,-200.97 -3.46,-42.23 11.13,-123.77 -21.65,-129.87 -47.16,-8.77 -128.45,166.93 -148.4,231.9 -71.83,233.85 -7.8,462.34 52.56,590.56 -119.84,-101.9 -202.6,-316.1 -191.7,-534.91 1.62,-32.45 2.56,-65.11 0,-95.85 -12.79,-153.61 -166.5,21.54 -198.46,79.98 -57.62,105.31 -41.23,232.93 -8.7,303.42 -76.4,-44.3 -107.53,-173.69 -95.85,-281.37 38.65,-356 459.41,-400.02 723.51,-525.62"
         style="fill:#ffffff;fill-opacity:0.50196078;fill-rule:nonzero;stroke:none"
         id="path4187"
         inkscape:connector-curvature="0" /><path
         d="m 5130.71,5589.37 c 21.5,74.45 164.91,45.52 185.51,-30.92 -69.8,2.34 -130.66,13.64 -185.51,30.92 z m -606.02,102.03 c -8.06,7.83 -11.15,16.34 0,24.74 31.33,21.34 124.63,42.71 136.05,-3.09 15.49,-62.2 -103.88,-46.93 -136.05,-21.65 z m 2488.99,250.45 c -65.74,89.75 35.45,222.85 52.57,272.09 -132.98,-46.37 -160.75,-241.19 -268.99,-312.28 0,0 153.79,301.9 111.3,494.7 -64.48,-214.78 -223.01,-528.13 -542.77,-590.75 120,170.67 292.77,483.15 255.23,841.2 -38.73,-213.76 -129.42,-409.58 -246.92,-570.95 -83.17,-114.24 -263.38,-289.38 -358.66,-262.22 -116.01,34.63 109.26,483.37 200.53,582.72 -160.32,-59.96 -218.14,-197.61 -299.92,-340.11 -26.33,-45.9 -123.31,-238.91 -175.79,-109.66 -71.73,176.66 21.64,329.81 39.75,459.04 -102.23,-79.17 -134.9,-254.68 -179.34,-401.94 -117.16,129.85 -51.08,462.34 -12.36,618.38 -95.43,-113.31 -147.71,-319.38 -126.77,-544.18 11.8,-126.64 97.16,-214.68 120.59,-321.56 -94.67,-27.98 -176.75,-34.43 -250.45,-24.73 -97.61,12.84 -207.42,-30.56 -296.83,-18.55 -91.53,12.29 -136.93,107.3 -207.15,136.04 -175.63,71.89 -357.36,-42.05 -429.78,-176.24 -11.92,-29.27 5.08,-40.09 24.73,-46.38 129.58,-22.95 243.75,-77.82 309.2,-154.6 -79.36,-2.06 -163.42,24.32 -237.63,17.11 -20.62,-55.65 48.23,-163.93 126.32,-171.7 20.9,-2.07 55.02,15.63 80.39,12.37 67.13,-8.62 116.5,-87.44 182.42,-126.77 151.87,-90.6 425.19,-180.16 575.1,-27.83 -110.97,-170.49 -397.69,-155.15 -581.28,-58.74 -14.64,-263.75 96.49,-481.78 265.91,-599.84 -184,95.32 -328.28,230.34 -327.75,510.17 -197.16,-31.82 -240.72,76.89 -420.51,86.57 -123.82,6.67 -291.61,-47.04 -386.49,-86.57 -125.28,-52.21 -248.73,-162.78 -312.28,-268.99 -120.54,-201.49 -124.56,-475.46 -246.9,-669.51 -69.23,-109.79 -208.23,-172.58 -343.21,-213.14 -39.99,-308.44 -176.24,-572 -83.93,-941.59 50.29,361.11 160.4,713.85 451.42,856.46 119.22,58.42 270.61,63.79 383.4,126.77 92.21,51.48 167.14,166.69 265.9,200.98 320.26,111.17 476.61,-177.69 658.92,-168.74 -29.5,54.63 -31.59,250.69 -15.34,332.19 24.73,-214.37 97.63,-390.32 120.57,-449.35 129.87,-333.94 61.85,-915.22 342.77,-1337.36 -65.13,244.09 -77.3,533.62 -77.3,853.36 0,231 40.37,508.41 160.78,606.02 33.52,-129.95 -20.77,-248.66 -58.75,-395.76 -54.39,-210.67 -87.75,-525.19 49.48,-667.86 -85.54,293.41 74.67,543.57 194.21,764.32 60.19,111.18 109.24,251.48 152.08,361.14 0,0 117.13,81.7 163.87,132.96 103.88,113.92 208.15,310.57 210.25,516.34 3.87,380.52 -211.71,618.69 -435.96,769.9 150.53,-40.66 324.3,-28.18 401.95,64.93 -112.85,73.14 -306.34,77.44 -466.88,55.65 68.58,236.6 354.81,32.81 541.08,15.46 253.06,-23.57 443.13,36.88 664.77,80.39 170.97,33.56 382.27,55.62 488.52,126.77 74.59,49.95 175.79,139.09 191.7,238.07 -93.34,-71.52 -304.34,-199.01 -395.77,-74.2"
         style="fill:#ffffff;fill-opacity:0.50196078;fill-rule:nonzero;stroke:none"
         id="path4189"
         inkscape:connector-curvature="0" /><path
         d="m 4410.28,4061.96 c -70.07,42.9 -217.83,27.49 -284.45,-6.19 -12.41,-30.87 -40.82,-96.22 -55.2,-125.12 412.03,-252.05 701.86,-488.52 677.12,-896.66 92.1,202.87 64.95,325.55 -6.18,476.17 -105.12,222.61 -381.82,367.98 -331.29,551.8"
         style="fill:#ffffff;fill-opacity:0.50196078;fill-rule:nonzero;stroke:none"
         id="path4191"
         inkscape:connector-curvature="0" /></g></g></svg>