<?xml version="1.0" standalone="no"?>
<!DOCTYPE svg PUBLIC "-//W3C//DTD SVG 20010904//EN"
 "http://www.w3.org/TR/2001/REC-SVG-20010904/DTD/svg10.dtd">
<svg version="1.0" xmlns="http://www.w3.org/2000/svg"
 width="555.000000pt" height="555.000000pt" viewBox="0 0 555.000000 555.000000"
 preserveAspectRatio="xMidYMid meet">
<metadata>
Created by potrace 1.11, written by Peter Selinger 2001-2013
</metadata>
<g transform="translate(0.000000,555.000000) scale(0.100000,-0.100000)"
fill="#000000" stroke="none">
<path d="M2222 5501 c-129 -152 -189 -344 -191 -612 -1 -180 -12 -212 -68
-201 -36 7 -137 104 -172 166 -56 97 -70 221 -37 330 l14 47 -21 -14 c-55 -35
-95 -153 -95 -277 0 -138 44 -244 144 -345 35 -36 69 -65 74 -65 4 0 15 -6 22
-14 23 -22 137 -80 238 -120 142 -56 154 -60 165 -62 6 -1 35 -12 65 -24 30
-12 62 -23 70 -25 32 -6 136 -59 151 -76 8 -10 24 -43 35 -74 l19 -57 40 6
c109 15 112 16 107 45 -5 34 31 79 68 86 61 12 79 15 135 20 33 2 73 7 88 11
26 5 27 8 14 22 -25 28 -64 123 -77 186 -12 57 -18 234 -9 266 3 12 -4 14 -32
12 -73 -5 -108 80 -96 233 6 68 45 218 59 223 4 2 8 10 8 18 0 16 25 58 52 88
28 30 21 39 -13 19 -50 -29 -129 -113 -178 -188 -25 -38 -46 -72 -46 -75 -1
-3 -8 -19 -18 -37 -27 -51 -54 -131 -78 -233 -12 -52 -26 -99 -30 -105 -5 -5
-9 -15 -9 -22 0 -20 -32 -53 -51 -53 -10 0 -27 12 -38 26 -33 42 -43 127 -27
249 l7 60 -21 -30 c-20 -29 -41 -69 -45 -90 -2 -5 -8 -30 -15 -54 -6 -24 -13
-83 -14 -132 -1 -49 -6 -92 -9 -96 -28 -28 -79 17 -131 116 -80 152 -110 276
-109 447 1 103 6 136 37 269 12 51 31 106 47 137 25 49 13 48 -29 -1z"/>
<path d="M4535 5138 c-2 -7 -11 -42 -20 -78 -37 -150 -122 -342 -223 -500
-177 -276 -444 -476 -527 -393 -13 12 -16 31 -14 77 2 34 6 66 10 71 4 6 7 12
6 15 -2 11 26 101 34 106 5 3 9 12 9 19 0 37 177 374 201 383 11 4 12 32 2 32
-33 -2 -203 -151 -203 -179 0 -5 -7 -11 -15 -15 -8 -3 -15 -10 -15 -17 0 -6
-8 -23 -19 -37 -10 -15 -35 -58 -56 -97 -21 -38 -45 -78 -54 -89 -9 -10 -14
-20 -12 -23 8 -10 -74 -119 -105 -140 -23 -15 -29 -15 -52 -2 -39 21 -65 105
-66 209 0 99 3 118 44 265 16 61 30 119 30 129 0 26 -85 -83 -102 -130 -6 -19
-16 -34 -20 -34 -4 0 -7 -3 -6 -7 1 -5 -7 -37 -19 -73 -12 -36 -33 -105 -48
-154 l-27 -88 -19 28 c-18 27 -43 99 -54 155 -6 28 -6 183 0 249 5 65 37 252
51 303 3 9 1 17 -5 17 -6 0 -11 -6 -11 -14 0 -8 -4 -16 -9 -18 -24 -9 -93
-190 -108 -283 -3 -16 -8 -49 -12 -72 -8 -39 -6 -265 1 -308 10 -51 31 -107
74 -195 26 -52 52 -112 60 -132 13 -37 13 -37 -19 -47 -72 -21 -100 -24 -272
-27 -99 -1 -191 -5 -205 -8 -14 -4 -61 -9 -105 -11 -90 -4 -141 13 -205 72
-75 68 -86 76 -130 97 -36 17 -64 21 -141 21 -90 0 -99 -2 -170 -37 -113 -56
-248 -200 -224 -239 10 -15 65 -35 120 -44 70 -10 217 -90 270 -145 l29 -31
-49 5 c-28 3 -77 8 -110 11 -113 12 -125 12 -133 1 -19 -25 3 -93 45 -141 21
-24 83 -69 83 -60 0 3 8 1 19 -4 10 -6 21 -7 25 -4 18 18 91 19 126 2 22 -11
118 -88 158 -126 16 -16 195 -103 210 -103 6 0 23 -5 39 -12 34 -14 35 -14
103 -28 118 -24 278 -1 344 51 36 29 33 12 -5 -22 -58 -52 -223 -111 -264 -95
-8 3 -16 2 -19 -2 -6 -10 -105 -3 -171 12 -5 2 -28 6 -49 11 -22 4 -67 19
-100 31 -33 13 -63 24 -66 24 -8 0 -4 -120 5 -188 24 -182 107 -352 233 -478
61 -61 58 -61 -28 -3 -107 72 -203 184 -237 276 -6 15 -15 37 -19 48 -4 11 -8
22 -9 25 -1 4 -16 87 -20 115 -1 6 -3 30 -3 55 l-2 46 -69 -4 c-70 -4 -143 11
-225 48 -186 82 -314 84 -561 8 -201 -61 -292 -114 -421 -243 -87 -87 -150
-178 -182 -265 -40 -107 -107 -331 -119 -395 -2 -16 -10 -36 -15 -43 -6 -6 -8
-12 -4 -12 10 0 -44 -141 -82 -213 -71 -138 -206 -240 -400 -302 -29 -10 -54
-20 -56 -24 -3 -3 -7 -27 -11 -51 -4 -25 -13 -75 -21 -112 -7 -37 -16 -82 -19
-100 -3 -17 -8 -34 -10 -38 -2 -4 -7 -22 -10 -41 -3 -19 -8 -42 -11 -51 -3 -9
-7 -27 -9 -40 -3 -13 -9 -45 -15 -73 -15 -73 -17 -86 -26 -146 -11 -68 -11
-329 -1 -389 14 -84 19 -100 28 -100 5 0 8 3 7 8 -1 4 2 26 6 50 4 23 9 52 10
65 3 20 7 40 21 102 2 11 9 38 15 60 6 22 13 49 15 60 27 118 124 338 187 426
124 174 281 284 463 325 75 16 192 49 235 66 89 34 120 55 219 146 143 132
234 173 381 167 47 -2 94 -5 105 -7 45 -8 146 -55 260 -122 132 -77 200 -106
245 -106 26 0 29 3 21 18 -18 34 -30 260 -19 359 2 21 15 5 16 -19 1 -58 50
-249 104 -403 57 -164 82 -245 92 -299 3 -14 7 -34 10 -44 4 -15 10 -48 21
-122 2 -14 7 -51 10 -84 3 -32 7 -62 10 -65 2 -4 7 -38 10 -76 4 -39 9 -73 10
-76 2 -3 7 -37 11 -75 3 -38 8 -78 10 -89 9 -45 17 -101 18 -117 0 -10 4 -18
9 -18 4 0 5 -4 2 -10 -3 -5 -1 -27 4 -47 6 -21 18 -72 27 -113 20 -90 67 -238
89 -280 8 -16 13 -30 10 -30 -6 0 78 -161 100 -193 19 -27 19 -29 -4 84 -11
52 -23 114 -26 139 -3 25 -8 56 -10 70 -20 135 -28 304 -28 630 -1 345 4 403
44 570 25 102 75 212 116 259 29 32 31 33 37 14 17 -54 7 -176 -21 -273 -9
-30 -18 -59 -19 -65 -1 -5 -12 -46 -24 -90 -11 -44 -23 -89 -25 -100 -3 -11
-7 -31 -10 -45 -3 -14 -8 -41 -10 -60 -3 -19 -9 -55 -13 -80 -9 -56 -9 -301 0
-355 14 -85 76 -225 100 -225 5 0 7 4 4 8 -18 30 -28 280 -13 337 3 11 12 47
21 81 9 34 23 79 33 100 9 21 17 44 19 49 2 14 84 177 124 250 81 146 135 262
205 443 40 103 54 127 84 150 20 15 38 30 39 35 2 4 8 7 14 7 5 0 15 6 23 13
136 128 171 172 238 299 37 70 86 202 94 253 2 17 8 47 13 69 8 38 6 253 -3
291 -2 11 -8 40 -12 64 -16 96 -87 265 -149 356 -75 109 -200 237 -308 314
-27 19 -48 36 -48 38 0 3 63 -5 100 -13 50 -12 186 -1 255 19 27 9 83 38 105
56 22 18 23 22 10 34 -18 18 -118 53 -180 64 -25 4 -120 8 -213 8 -92 0 -167
3 -167 8 0 21 54 88 82 103 19 10 60 18 93 19 57 1 87 -5 253 -56 37 -11 75
-22 84 -24 9 -2 25 -8 35 -13 10 -6 34 -13 53 -17 53 -11 338 -14 400 -5 125
18 148 22 212 36 37 7 80 16 95 19 16 3 39 7 53 11 49 11 115 25 135 28 11 2
45 8 75 14 30 6 71 14 90 16 19 3 46 8 60 11 14 3 50 10 80 16 63 12 200 48
215 57 6 4 16 7 23 8 25 4 139 84 186 131 56 56 110 136 120 176 l7 28 -48
-33 c-89 -61 -209 -113 -280 -122 -50 -6 -112 10 -141 37 -72 66 -69 150 9
300 32 61 26 70 -24 35 -45 -32 -69 -62 -124 -153 -26 -44 -51 -81 -55 -83 -5
-2 -8 -8 -8 -13 0 -14 -59 -87 -75 -93 -8 -3 -11 2 -8 15 3 10 10 19 16 19 6
0 7 3 4 7 -4 3 0 17 8 30 9 13 13 23 9 23 -4 0 -2 6 4 13 29 35 94 301 94 387
1 74 -4 103 -12 90 -6 -8 -15 -33 -21 -55 -21 -74 -117 -260 -176 -340 -55
-74 -104 -126 -178 -189 -43 -37 -193 -112 -248 -123 -51 -12 -51 -14 -5 54
15 23 28 45 28 49 0 4 6 15 14 23 26 30 124 235 156 329 30 90 35 105 46 162
3 14 10 43 15 65 12 49 25 315 15 315 -4 0 -9 -6 -11 -12z m-2456 -1097 c17
-13 22 -24 17 -39 -12 -37 -115 -42 -162 -7 -18 13 -18 15 -3 30 16 16 57 29
104 33 11 0 31 -7 44 -17z m754 -130 c30 -12 77 -54 77 -70 0 -14 -70 -9 -155
11 -27 7 -53 11 -57 10 -5 -1 -8 4 -8 12 0 37 85 59 143 37z"/>
<path d="M1600 1992 c-19 -1 -65 -9 -101 -18 l-66 -15 -37 -81 c-20 -45 -35
-82 -34 -83 2 -2 57 -37 123 -80 209 -134 305 -210 437 -340 134 -133 237
-310 263 -450 3 -16 8 -46 12 -65 3 -19 6 -65 7 -102 1 -36 4 -64 8 -62 4 3
19 42 33 87 50 157 39 292 -38 467 -36 81 -135 214 -255 346 -26 27 -56 63
-67 78 -11 16 -25 34 -32 41 -43 46 -78 141 -74 207 1 20 -4 40 -11 44 -20 12
-129 29 -168 26z"/>
</g>
</svg>
